/* XPM */
static char * AppImage_xpm[] = {
"32 32 516 2",
"  	c None",
". 	c #708999",
"+ 	c #7D95A3",
"@ 	c #7E95A4",
"# 	c #7E96A4",
"$ 	c #7F96A4",
"% 	c #8097A4",
"& 	c #8097A5",
"* 	c #8197A5",
"= 	c #728C9B",
"- 	c #6F8897",
"; 	c #A4BDCC",
"> 	c #A8C3D3",
", 	c #A9C4D3",
"' 	c #ABC5D4",
") 	c #ACC6D5",
"! 	c #AEC7D5",
"~ 	c #AFC8D6",
"{ 	c #B0C9D7",
"] 	c #B2CAD8",
"^ 	c #B3CBD8",
"/ 	c #B4CCD9",
"( 	c #B5CCD9",
"_ 	c #B5CBD7",
": 	c #B6CBD7",
"< 	c #B6CBD8",
"[ 	c #B1C9D7",
"} 	c #AEC7D6",
"| 	c #A8C1D0",
"1 	c #768F9E",
"2 	c #7991A0",
"3 	c #A3C0D0",
"4 	c #85ABC1",
"5 	c #87ACC2",
"6 	c #89AEC3",
"7 	c #8BAFC4",
"8 	c #8DB1C5",
"9 	c #8FB2C6",
"0 	c #91B4C7",
"a 	c #93B5C8",
"b 	c #96B7C9",
"c 	c #98B8CA",
"d 	c #94B3C4",
"e 	c #90AEBE",
"f 	c #91ADBE",
"g 	c #92AEBE",
"h 	c #90ADBE",
"i 	c #93B2C3",
"j 	c #96B7CA",
"k 	c #94B6C9",
"l 	c #92B4C8",
"m 	c #90B3C7",
"n 	c #8DB1C6",
"o 	c #8BB0C5",
"p 	c #89AEC4",
"q 	c #87ADC2",
"r 	c #9DBBCD",
"s 	c #839BAA",
"t 	c #77909E",
"u 	c #A2BECF",
"v 	c #8CB0C5",
"w 	c #8EB1C6",
"x 	c #99B9CB",
"y 	c #92B1C2",
"z 	c #B1C2CD",
"A 	c #E6EBEE",
"B 	c #BECCD4",
"C 	c #91AFBF",
"D 	c #97B8CA",
"E 	c #95B6C9",
"F 	c #92B5C8",
"G 	c #8EB2C6",
"H 	c #8AAFC4",
"I 	c #87ADC3",
"J 	c #85ABC2",
"K 	c #9CBACC",
"L 	c #819AA8",
"M 	c #758E9D",
"N 	c #A0BECF",
"O 	c #97B7CA",
"P 	c #93B0C2",
"Q 	c #BCCBD4",
"R 	c #FBFBFB",
"S 	c #F8F8F8",
"T 	c #FAFAFA",
"U 	c #CDD7DE",
"V 	c #91AEC0",
"W 	c #88ADC3",
"X 	c #85ACC2",
"Y 	c #9BBACC",
"Z 	c #8098A7",
"` 	c #738D9B",
" .	c #9FBDCE",
"..	c #98B9CB",
"+.	c #92B0C1",
"@.	c #BBCAD3",
"#.	c #F9F9F9",
"$.	c #F6F6F6",
"%.	c #CCD6DD",
"&.	c #91AEBF",
"*.	c #8AAEC4",
"=.	c #9AB9CB",
"-.	c #7E97A5",
";.	c #728B9A",
">.	c #9EBCCE",
",.	c #84ABC1",
"'.	c #86ACC2",
").	c #92B3C6",
"!.	c #93B3C5",
"~.	c #90AFC0",
"{.	c #BAC9D2",
"].	c #CBD5DC",
"^.	c #8FAEBE",
"/.	c #92B2C4",
"(.	c #92B3C5",
"_.	c #98B8CB",
":.	c #7C95A4",
"<.	c #708998",
"[.	c #9CBBCD",
"}.	c #84AAC1",
"|.	c #8FB1C4",
"1.	c #8AAABB",
"2.	c #88A7B9",
"3.	c #8AA8B9",
"4.	c #B8C7D0",
"5.	c #F5F5F5",
"6.	c #F7F7F7",
"7.	c #C9D4DA",
"8.	c #89A8B8",
"9.	c #89A7B9",
"0.	c #89A9BB",
"a.	c #8EB0C3",
"b.	c #7A93A2",
"c.	c #6E8797",
"d.	c #9ABACC",
"e.	c #83AAC0",
"f.	c #8DAFC3",
"g.	c #87A7B9",
"h.	c #BECBD3",
"i.	c #EDF0F1",
"j.	c #F1F2F3",
"k.	c #F4F4F4",
"l.	c #F2F4F4",
"m.	c #CCD6DC",
"n.	c #87A6B8",
"o.	c #8CAEC1",
"p.	c #7892A1",
"q.	c #6C8695",
"r.	c #81A9C0",
"s.	c #83AAC1",
"t.	c #8EB1C5",
"u.	c #8AACBF",
"v.	c #D5DDE1",
"w.	c #E1E6E9",
"x.	c #8DA9B9",
"y.	c #89AABE",
"z.	c #8DB0C5",
"A.	c #82A9C0",
"B.	c #76909F",
"C.	c #6A8493",
"D.	c #96B6CA",
"E.	c #80A8BF",
"F.	c #8CB0C4",
"G.	c #88AABD",
"H.	c #88A6B8",
"I.	c #DDE2E5",
"J.	c #F3F3F3",
"K.	c #E6E9EB",
"L.	c #90ABBB",
"M.	c #87A9BC",
"N.	c #8CAFC4",
"O.	c #91B3C7",
"P.	c #748E9E",
"Q.	c #678291",
"R.	c #93B5C9",
"S.	c #7EA7BE",
"T.	c #8AAFC3",
"U.	c #86A8BB",
"V.	c #8CA8B9",
"W.	c #E3E7E9",
"X.	c #EAECEE",
"Y.	c #96AEBD",
"Z.	c #85A7BA",
"`.	c #8AAEC2",
" +	c #7FA7BE",
".+	c #718C9C",
"++	c #658090",
"@+	c #7CA5BD",
"#+	c #88ADC2",
"$+	c #83A5B9",
"%+	c #93ACBC",
"&+	c #E8EAEC",
"*+	c #EEEFEF",
"=+	c #9FB4C2",
"-+	c #82A4B8",
";+	c #87ACC1",
">+	c #7DA6BD",
",+	c #6F8A9A",
"'+	c #637E8E",
")+	c #7BA4BC",
"!+	c #7EA6BE",
"~+	c #7FA7BF",
"{+	c #81A8BF",
"]+	c #85AABF",
"^+	c #7FA2B7",
"/+	c #9AB1BF",
"(+	c #A7B9C5",
"_+	c #7DA0B4",
":+	c #83A7BC",
"<+	c #7BA4BD",
"[+	c #6D8899",
"}+	c #617C8C",
"|+	c #79A3BB",
"1+	c #7AA4BC",
"2+	c #7BA5BD",
"3+	c #7DA6BE",
"4+	c #82A9BF",
"5+	c #80A5BB",
"6+	c #80A6BC",
"7+	c #81A7BD",
"8+	c #7B9EB3",
"9+	c #BCC9D3",
"0+	c #CFD8DF",
"a+	c #A3B7C5",
"b+	c #7DA1B7",
"c+	c #82A8BE",
"d+	c #7FA5BB",
"e+	c #79A3BC",
"f+	c #6A8697",
"g+	c #5E7A8A",
"h+	c #76A1BA",
"i+	c #78A2BB",
"j+	c #7EA6BD",
"k+	c #7AA0B6",
"l+	c #7B9DB2",
"m+	c #799CB1",
"n+	c #7A9FB5",
"o+	c #779BB1",
"p+	c #C0CCD5",
"q+	c #799EB4",
"r+	c #7A9CB1",
"s+	c #779CB1",
"t+	c #7BA2B9",
"u+	c #77A1BA",
"v+	c #688495",
"w+	c #5C7889",
"x+	c #74A0B9",
"y+	c #77A1BB",
"z+	c #779FB5",
"A+	c #789BAF",
"B+	c #D8DFE4",
"C+	c #DAE0E5",
"D+	c #799CB0",
"E+	c #7B9CB1",
"F+	c #E8ECEF",
"G+	c #C5D0D8",
"H+	c #7599AF",
"I+	c #92ABBB",
"J+	c #EEF0F2",
"K+	c #AFC0CB",
"L+	c #749AB0",
"M+	c #79A1B8",
"N+	c #77A2BB",
"O+	c #81A8C0",
"P+	c #658294",
"Q+	c #5A7687",
"R+	c #729EB8",
"S+	c #739FB9",
"T+	c #739AB1",
"U+	c #A5B8C5",
"V+	c #E3E8EB",
"W+	c #EFF1F2",
"X+	c #F0F0F0",
"Y+	c #E2E6EA",
"Z+	c #EFF2F3",
"`+	c #779AAF",
" @	c #759EB5",
".@	c #75A0BA",
"+@	c #628092",
"@@	c #577485",
"#@	c #6F9CB7",
"$@	c #719DB8",
"%@	c #739CB4",
"&@	c #6E96AC",
"*@	c #BCC9D2",
"=@	c #F1F1F1",
"-@	c #EFEFEF",
";@	c #98AEBD",
">@	c #6F98AF",
",@	c #749EB7",
"'@	c #709DB7",
")@	c #607E90",
"!@	c #557283",
"~@	c #6D9BB6",
"{@	c #6E9CB6",
"]@	c #719EB8",
"^@	c #6F99B2",
"/@	c #6D96AF",
"(@	c #6E97AF",
"_@	c #8EA8B9",
":@	c #F3F4F4",
"<@	c #EDEDED",
"[@	c #C8D2D9",
"}@	c #E7EAEC",
"|@	c #E0E5E8",
"1@	c #6B93AB",
"2@	c #6D97B0",
"3@	c #709BB4",
"4@	c #709CB7",
"5@	c #6E9CB7",
"6@	c #5D7C8E",
"7@	c #527081",
"8@	c #6B99B5",
"9@	c #6C9AB5",
"0@	c #6E9BB6",
"a@	c #6D99B3",
"b@	c #6891AA",
"c@	c #AABBC7",
"d@	c #B7C4CE",
"e@	c #D7DDE2",
"f@	c #C3CED6",
"g@	c #6A92AB",
"h@	c #6B95AD",
"i@	c #7799AE",
"j@	c #E4E7EA",
"k@	c #EEEEEE",
"l@	c #C0CBD4",
"m@	c #95ABBB",
"n@	c #6993AD",
"o@	c #5A7A8C",
"p@	c #506E80",
"q@	c #749FB9",
"r@	c #6897B3",
"s@	c #6998B4",
"t@	c #6A99B4",
"u@	c #6A96B1",
"v@	c #648EA7",
"w@	c #E7EAEB",
"x@	c #ECECEC",
"y@	c #F2F2F2",
"z@	c #8CA5B7",
"A@	c #6B96B0",
"B@	c #6E9AB5",
"C@	c #6992AC",
"D@	c #BCC8D1",
"E@	c #C8D1D8",
"F@	c #6690AA",
"G@	c #6B99B4",
"H@	c #6A99B5",
"I@	c #6897B4",
"J@	c #57778A",
"K@	c #4D6C7E",
"L@	c #6595B2",
"M@	c #6696B3",
"N@	c #6797B3",
"O@	c #6898B4",
"P@	c #6895B0",
"Q@	c #628DA6",
"R@	c #D2D9DE",
"S@	c #E2E5E8",
"T@	c #EAECED",
"U@	c #9FB3C0",
"V@	c #6792AC",
"W@	c #6995AF",
"X@	c #658FA8",
"Y@	c #CCD4DA",
"Z@	c #B4C1CB",
"`@	c #648FA9",
" #	c #6997B3",
".#	c #6796B3",
"+#	c #6696B2",
"@#	c #547589",
"##	c #4B6A7C",
"$#	c #6D9AB6",
"%#	c #6394B1",
"&#	c #6494B1",
"*#	c #6695B1",
"=#	c #628EA9",
"-#	c #618CA6",
";#	c #A2B4C1",
">#	c #E4E7E9",
",#	c #9AAEBD",
"'#	c #819EB1",
")#	c #B3C1CB",
"!#	c #EBEBEB",
"~#	c #E9EAEC",
"{#	c #6E92A9",
"]#	c #608CA6",
"^#	c #6390AB",
"/#	c #527387",
"(#	c #48677A",
"_#	c #6997B4",
":#	c #6092B0",
"<#	c #6193B0",
"[#	c #6293B1",
"}#	c #6495B2",
"|#	c #6494B0",
"1#	c #6290AC",
"2#	c #608DA8",
"3#	c #839EB1",
"4#	c #EDEDEE",
"5#	c #EAEAEA",
"6#	c #D8DDE1",
"7#	c #648CA5",
"8#	c #608DA9",
"9#	c #6391AE",
"0#	c #4F7185",
"a#	c #456578",
"b#	c #5E90AE",
"c#	c #5E91AF",
"d#	c #5F91AF",
"e#	c #6192B0",
"f#	c #6293B0",
"g#	c #5E8CA8",
"h#	c #7B99AD",
"i#	c #E1E4E6",
"j#	c #E9E9E9",
"k#	c #EBECEC",
"l#	c #C9D0D6",
"m#	c #5E8AA4",
"n#	c #5F8FAC",
"o#	c #4C6E83",
"p#	c #436376",
"q#	c #5B8EAD",
"r#	c #5C8FAD",
"s#	c #5D8FAE",
"t#	c #5D90AE",
"u#	c #5E90AF",
"v#	c #5B8AA6",
"w#	c #839EB0",
"x#	c #E1E3E5",
"y#	c #E2E4E6",
"z#	c #8CA4B4",
"A#	c #9FB1BE",
"B#	c #CFD5DA",
"C#	c #88A2B3",
"D#	c #ADBBC5",
"E#	c #CED4D9",
"F#	c #608AA4",
"G#	c #5C8DAA",
"H#	c #5C8FAE",
"I#	c #6091AF",
"J#	c #496C81",
"K#	c #406174",
"L#	c #588CAC",
"M#	c #598DAC",
"N#	c #5A8DAD",
"O#	c #5B8DAB",
"P#	c #5787A4",
"Q#	c #819CAF",
"R#	c #5888A3",
"S#	c #5786A1",
"T#	c #CFD4D9",
"U#	c #ABB9C3",
"V#	c #5888A4",
"W#	c #5686A1",
"X#	c #95A9B8",
"Y#	c #618AA3",
"Z#	c #5889A6",
"`#	c #5C8EAC",
" $	c #5B8FAD",
".$	c #5A8EAD",
"+$	c #46697F",
"@$	c #3D5F72",
"#$	c #558AAA",
"$$	c #568BAB",
"%$	c #578CAB",
"&$	c #588DAC",
"*$	c #5A8DAC",
"=$	c #598BA9",
"-$	c #5587A3",
";$	c #5687A4",
">$	c #5889A7",
",$	c #5484A0",
"'$	c #C1C9D0",
")$	c #DBDEE0",
"!$	c #9EAFBC",
"~$	c #5586A3",
"{$	c #588AA7",
"]$	c #5688A5",
"^$	c #598DAB",
"/$	c #42677D",
"($	c #3B5C70",
"_$	c #5389A9",
":$	c #5489A9",
"<$	c #548AAA",
"[$	c #578BAB",
"}$	c #588CAB",
"|$	c #588BAA",
"1$	c #5385A2",
"2$	c #51819D",
"3$	c #52819E",
"4$	c #5587A5",
"5$	c #5489AA",
"6$	c #3F657B",
"7$	c #355465",
"8$	c #4F83A3",
"9$	c #5087A8",
"0$	c #5187A8",
"a$	c #5288A9",
"b$	c #5388A9",
"c$	c #558AAB",
"d$	c #5589A9",
"e$	c #5487A6",
"f$	c #5389AA",
"g$	c #5188A9",
"h$	c #5086A6",
"i$	c #395B6F",
"j$	c #355669",
"k$	c #3A6077",
"l$	c #3B6177",
"m$	c #3B6178",
"n$	c #3C6178",
"o$	c #3C6278",
"p$	c #3D6278",
"q$	c #36586D",
"  . + + @ @ # $ $ $ % & & & & * * & & & & % $ $ $ # # @ + + =   ",
"- ; > , ' ) ! ~ { ] ^ / ( _ _ : < _ _ ( ( ^ ] [ ~ } ) ' , > | 1 ",
"2 3 4 5 6 7 8 9 0 a b c d e f g g f h i c j k l m n o p q 4 r s ",
"t u 4 q p v w m l k j x y z A A A A B C c D E F m G v H I J K L ",
"M N 4 I p v w m l k O x P Q R S S T U V c D E a m G v H W X Y Z ",
"`  .4 q 6 o w m l k j ..+.@.#.$.$.S %.&.D O k l m w v *.I J =.-.",
";.>.,.'.6 7 8 9 0 a ).!.~.{.S $.$.S ].^./.(.a 0 9 8 7 6 q 4 _.:.",
"<.[.}.'.W H v w m |.1.2.3.4.S 5.5.6.7.8.9.0.a.m G v H W '.,.O b.",
"c.d.e.4 5 6 H v G f.g.h.i.j.$.k.k.$.l.i.m.n.o.G 8 7 6 q 4 e.E p.",
"q._.r.s.J q 6 7 v t.u.n.v.$.k.k.k.k.5.w.x.y.8 z.7 6 I X }.A.a B.",
"C.D.E.A.}.X q 6 H v F.G.H.I.k.J.J.k.K.L.M.N.v H 6 I '.}.A.E.O.P.",
"Q.R.S.E.A.s.4 5 W p H T.U.V.W.J.J.X.Y.Z.`.7 p W 5 J }.A.E. +9 .+",
"++O.@+S.E.r.e.,.'.q W 6 #+$+%+&+*+=+-+;+6 W q '.,.s.A.E.S.>+v ,+",
"'+w )+@+!+~+{+A.s.,.J '.5 ]+^+/+(+_+:+q '.J ,.s.A.{+~+!+@+<+*.[+",
"}+7 |+1+2+3+S.~+{+A.4+5+6+7+8+9+0+a+b+c+d+6+A.{+E.S.3+@+1+e+5 f+",
"g+W h+i+e+)+@+3+!+j+k+l+m+n+o+A S p+q+q+r+s+t+!+3+@+)+e+i+u+}.v+",
"w+J x+h+y+i+e+1+2+z+A+B+C+D+E+F+k.G+H+I+J+K+L+M+1+e+i+N+h+x+O+P+",
"Q+A.R+S+x+h+y+i+i+T+U+#.5.V+W+5.X+S Y+J+k.Z+`+ @i+y+h+.@S+R+!++@",
"@@!+#@$@R+S+x+.@h+%@&@*@5.=@-@X+=@-@X+=@W+;@>@,@.@x+S+R+$@'@<+)@",
"!@<+~@{@#@'@]@R+^@/@(@_@:@<@k.B+[@}@=@-@|@1@/@2@3@R+$@4@5@~@i+6@",
"7@i+8@9@~@0@#@a@b@c@d@e@X+=@f@g@h@i@j@k@k.l@d@m@n@0@0@~@9@8@.@o@",
"p@q@r@s@t@8@9@u@v@w@X+X+x@y@z@A@B@C@D@-@<@X+y@E@F@G@8@H@s@I@]@J@",
"K@'@L@M@N@O@s@P@Q@R@S@T@<@X+U@V@W@X@Y@<@-@j@S@Z@`@ #s@r@.#+#0@@#",
"##$#%#&#L@+#M@*#=#-#-#;#-@x@>#,#'#)#*+!#~#{#-#]#^#+#+#L@&#%#H@/#",
"(#_#:#<#[#%#&#}#|#1#2#3#4#5#!#k@-@<@5#!#6#7#8#9#&#&#%#[#<#:#.#0#",
"a#L@b#c#d#:#e#f#f#g#h#i#!#x@x@5#j#!#k#x@x@l#m#n#f#e#:#d#d#b#%#o#",
"p#e#q#r#s#t#u#d#d#v#w#x#y#z#A#x#5#B#C#D#!#E#F#G#d#u#t#s#H#q#I#J#",
"K#s#L#M#N#q#q#H#H#O#P#Q#Q#R#S#T#j#U#V#W#X#Y#Z#`#H# $q#.$M#L#H#+$",
"@$M##$$$%$L#&$M#*$.$=$-$;$>$,$'$)$!$~${$~$]$^$*$M#M#L#%$$$$$L#/$",
"($#$_$:$<$#$$$$$[$%$}$}$}$|$1$2$2$3$4$L#[$}$%$[$$$$$#$<$5$_$<$6$",
"7$8$9$0$a$b$_$5$<$#$#$c$$$$$d$e$e$e$#$$$c$#$#$<$5$f$b$a$g$0$h$i$",
"  j$k$l$m$m$m$n$n$o$o$o$o$o$o$p$p$p$o$o$o$o$o$n$n$m$m$m$l$k$q$  "};
